<svg width="100" height="100" viewBox="0 0 100 100" xmlns="http://www.w3.org/2000/svg">
  <!-- Gradient Background -->
  <defs>
    <radialGradient id="spinGradient" cx="50%" cy="30%" r="70%">
      <stop offset="0%" style="stop-color:#ffeb3b;stop-opacity:1" />
      <stop offset="70%" style="stop-color:#ffc107;stop-opacity:1" />
      <stop offset="100%" style="stop-color:#ff8f00;stop-opacity:1" />
    </radialGradient>
    <filter id="shadow" x="-50%" y="-50%" width="200%" height="200%">
      <feDropShadow dx="0" dy="3" stdDeviation="2" flood-color="#000" flood-opacity="0.3"/>
    </filter>
  </defs>
  
  <!-- Circle Background -->
  <circle cx="50" cy="50" r="45" fill="url(#spinGradient)" stroke="#dca500" stroke-width="3" filter="url(#shadow)"/>
  
  <!-- Play Symbol -->
  <polygon points="38,35 38,65 65,50" fill="#ffffff" stroke="#333" stroke-width="1"/>
  
  <!-- Sparkle Effects -->
  <g opacity="0.8">
    <polygon points="25,25 27,30 32,28 27,33 25,38 23,33 18,28 23,30" fill="#fff" opacity="0.7"/>
    <polygon points="75,20 76,23 79,22 76,25 75,28 74,25 71,22 74,23" fill="#fff" opacity="0.6"/>
    <polygon points="80,70 81,72 83,71 81,73 80,75 79,73 77,71 79,72" fill="#fff" opacity="0.5"/>
  </g>
</svg>
