<svg width="100" height="100" viewBox="0 0 100 100" xmlns="http://www.w3.org/2000/svg">
  <!-- Gradient Background -->
  <defs>
    <radialGradient id="stopGradient" cx="50%" cy="30%" r="70%">
      <stop offset="0%" style="stop-color:#ff5252;stop-opacity:1" />
      <stop offset="70%" style="stop-color:#f44336;stop-opacity:1" />
      <stop offset="100%" style="stop-color:#d32f2f;stop-opacity:1" />
    </radialGradient>
    <filter id="shadow" x="-50%" y="-50%" width="200%" height="200%">
      <feDropShadow dx="0" dy="3" stdDeviation="2" flood-color="#000" flood-opacity="0.3"/>
    </filter>
  </defs>
  
  <!-- Circle Background -->
  <circle cx="50" cy="50" r="45" fill="url(#stopGradient)" stroke="#c62828" stroke-width="3" filter="url(#shadow)"/>
  
  <!-- Stop Symbol -->
  <rect x="35" y="35" width="30" height="30" fill="#ffffff" stroke="#333" stroke-width="1" rx="3"/>
  
  <!-- Warning Effects -->
  <g opacity="0.8">
    <polygon points="25,25 27,30 32,28 27,33 25,38 23,33 18,28 23,30" fill="#fff" opacity="0.7"/>
    <polygon points="75,20 76,23 79,22 76,25 75,28 74,25 71,22 74,23" fill="#fff" opacity="0.6"/>
    <polygon points="20,70 21,72 23,71 21,73 20,75 19,73 17,71 19,72" fill="#fff" opacity="0.5"/>
  </g>
</svg>
